<svg xmlns="http://www.w3.org/2000/svg" viewBox="0 0 263.52 155.52"><defs><style>.a{fill:#202121;}.b{fill:#f1f2f3;}.c{fill:#f07c10;}.d{font-size:11px;font-family:Oswald-Medium, Oswald;}.d,.g{fill:#f59600;}.e,.g{font-size:9.19px;font-family:Oswald-Light, Oswald;}.f,.h{fill:#fafafa;}.h{fill-rule:evenodd;}</style></defs><title>business_card</title><rect width="263.52" rx="7.73" class="a" ry="7.73" height="155.52"/><path class="b" d="m133.11 45.69a7.9 7.9 0 0 1-4.55 0 4.09 4.09 0 0 1-2.61-2.36 7.4 7.4 0 0 1-0.55-1.85 13.85 13.85 0 0 1-0.16-2.19v-9.86a12.94 12.94 0 0 1 0.16-2.16 6.76 6.76 0 0 1 0.57-1.8 4.33 4.33 0 0 1 1-1.4 4.56 4.56 0 0 1 1.59-0.88 7.05 7.05 0 0 1 2.23-0.32 6.72 6.72 0 0 1 2.67 0.48 4 4 0 0 1 1.73 1.38 6 6 0 0 1 0.91 2.05 11.31 11.31 0 0 1 0.28 2.65v9.91a13.74 13.74 0 0 1-0.16 2.18 7.31 7.31 0 0 1-0.55 1.83 4.3 4.3 0 0 1-1 1.44 4.51 4.51 0 0 1-1.56 0.9zm-4.27-1.28a5.7 5.7 0 0 0 4 0 2.72 2.72 0 0 0 1.25-1.07 4.92 4.92 0 0 0 0.62-1.59 10.53 10.53 0 0 0 0.18-2.11v-10.43a10.83 10.83 0 0 0-0.18-2.11 4.66 4.66 0 0 0-0.62-1.58 2.74 2.74 0 0 0-1.25-1.06 5.8 5.8 0 0 0-4 0 2.74 2.74 0 0 0-1.25 1.06 4.65 4.65 0 0 0-0.59 1.58 10.81 10.81 0 0 0-0.18 2.11v10.42a10.91 10.91 0 0 0 0.18 2.11 4.72 4.72 0 0 0 0.62 1.59 2.76 2.76 0 0 0 1.22 1.08zM138.48 45.73 138.48 45.73"/><path class="b" d="m138.48 45.73l0.67-22.6h1.5l4.8 20.39 4.84-20.39h1.57l0.65 22.6h-1.32l-0.56-19-4.61 19h-1.1l-4.55-18.92-0.56 18.92z"/><path class="b" d="m153.83 45.73l4.74-22.6h1.74l4.78 22.6h-1.53l-1.17-6.24h-5.86l-1.21 6.24zm2.93-7.37h5.42l-2.72-13.36z"/><path class="b" d="m166.72 45.73v-22.6h5.49a6.63 6.63 0 0 1 2.05 0.29 4 4 0 0 1 1.42 0.77 3.68 3.68 0 0 1 0.89 1.21 5.8 5.8 0 0 1 0.47 1.52 11 11 0 0 1 0.13 1.77 12.64 12.64 0 0 1-0.08 1.5 6.87 6.87 0 0 1-0.31 1.36 4.19 4.19 0 0 1-0.59 1.17 3.24 3.24 0 0 1-1 0.85 3.86 3.86 0 0 1-1.4 0.48l3.65 11.68h-1.44l-3.53-11.39h-4.2v11.39zm1.53-12.55h3.88a4.57 4.57 0 0 0 1.77-0.3 2.3 2.3 0 0 0 1.1-0.88 4.07 4.07 0 0 0 0.53-1.38 10.08 10.08 0 0 0 0.15-1.89 5.69 5.69 0 0 0-0.76-3.32 3.26 3.26 0 0 0-2.79-1h-3.87z"/><path class="b" d="m189.21 46.08q-3.35 0-4.94-1.69t-1.68-5.64l4.69-0.61a12.14 12.14 0 0 0 0.12 1.86 3.51 3.51 0 0 0 0.35 1.17 1.55 1.55 0 0 0 0.5 0.57 1.16 1.16 0 0 0 0.62 0.16q0.93 0 0.93-1.34a4.13 4.13 0 0 0-0.59-2.25 9.62 9.62 0 0 0-1.9-2.06l-1.43-1.21q-0.78-0.67-1.27-1.19a9.58 9.58 0 0 1-1-1.27 5.52 5.52 0 0 1-0.76-1.67 7.82 7.82 0 0 1-0.25-2 5.76 5.76 0 0 1 1.77-4.52 7.07 7.07 0 0 1 4.87-1.6q5.56 0 5.6 6.6l-4.8 0.48q0-0.89 0-1.33a6 6 0 0 0-0.12-0.91 1.16 1.16 0 0 0-0.31-0.65 0.83 0.83 0 0 0-0.57-0.18 0.85 0.85 0 0 0-0.76 0.53 2.32 2.32 0 0 0-0.26 1 3.22 3.22 0 0 0 0 0.56l0.09 0.48a1.65 1.65 0 0 0 0.18 0.46q0.14 0.25 0.2 0.4a1.94 1.94 0 0 0 0.27 0.4l0.27 0.34a3.07 3.07 0 0 0 0.33 0.34l0.31 0.29 0.35 0.31 0.33 0.29 1.31 1.16a18 18 0 0 1 1.41 1.4 11.27 11.27 0 0 1 1.11 1.51 6.75 6.75 0 0 1 0.8 1.85 8.41 8.41 0 0 1 0.27 2.16 5.56 5.56 0 0 1-1.67 4.1 6 6 0 0 1-4.37 1.7z"/><path class="b" d="m196.34 45.73v-22.6h5.52v22.6z"/><path class="b" d="m203.77 45.73v-22.6h5.53v18.87h5v3.69z"/><path class="b" d="m217.43 45.73l-3.8-22.6h4.65l2.1 15 1.92-15h5l-3.87 22.6z"/><path class="b" d="m226.51 45.73l4.1-22.6h6.39l4.06 22.6h-5.06l-0.71-4.51h-2.93l-0.68 4.51zm6.34-7.7h2l-1-8.44z"/><path class="c" d="m125.29 55.21v-7.49h1.8a2.29 2.29 0 0 1 0.84 0.14 1.26 1.26 0 0 1 0.56 0.41 1.73 1.73 0 0 1 0.29 0.62 3.29 3.29 0 0 1 0.09 0.81 2.81 2.81 0 0 1-0.1 0.76 1.85 1.85 0 0 1-0.3 0.62 1.36 1.36 0 0 1-0.56 0.43 2 2 0 0 1-0.82 0.15h-1.09v3.54zm0.71-4.07h0.9a1.3 1.3 0 0 0 1-0.32 1.63 1.63 0 0 0 0.3-1.11 1.85 1.85 0 0 0-0.26-1.16 1.32 1.32 0 0 0-1-0.3h-0.94z"/><path class="c" d="m129.46 55.21v-7.49h1.7a1.83 1.83 0 0 1 1.43 0.48 2.06 2.06 0 0 1 0.43 1.41q0 1.55-1 1.77l1.16 3.83h-0.7l-1.1-3.68h-1.17v3.68zm0.71-4.2h1a1.15 1.15 0 0 0 0.94-0.33 2.27 2.27 0 0 0 0-2.11 1.14 1.14 0 0 0-0.93-0.32h-1z"/><path class="c" d="m135.68 55.3a2.32 2.32 0 0 1-0.92-0.16 1.34 1.34 0 0 1-0.6-0.48 2.16 2.16 0 0 1-0.31-0.72 4.13 4.13 0 0 1-0.09-0.94v-3.11a3.93 3.93 0 0 1 0.1-0.93 2 2 0 0 1 0.32-0.7 1.36 1.36 0 0 1 0.6-0.46 2.71 2.71 0 0 1 1.82 0 1.36 1.36 0 0 1 0.6 0.47 2 2 0 0 1 0.32 0.7 3.91 3.91 0 0 1 0.1 0.92v3.11a4.65 4.65 0 0 1-0.06 0.76 2.42 2.42 0 0 1-0.19 0.63 1.43 1.43 0 0 1-0.91 0.8 2.44 2.44 0 0 1-0.78 0.11zm-0.61-0.68a1.71 1.71 0 0 0 1.21 0 0.8 0.8 0 0 0 0.37-0.33 1.55 1.55 0 0 0 0.18-0.49 3.51 3.51 0 0 0 0.05-0.65v-3.39a3.48 3.48 0 0 0-0.05-0.65 1.5 1.5 0 0 0-0.18-0.49 0.78 0.78 0 0 0-0.37-0.32 1.78 1.78 0 0 0-1.21 0 0.78 0.78 0 0 0-0.37 0.32 1.5 1.5 0 0 0-0.18 0.49 3.46 3.46 0 0 0-0.05 0.65v3.39a3.5 3.5 0 0 0 0.05 0.65 1.55 1.55 0 0 0 0.18 0.49 0.8 0.8 0 0 0 0.37 0.33z"/><path class="c" d="m140.15 55.31a2.12 2.12 0 0 1-0.89-0.17 1.31 1.31 0 0 1-0.57-0.49 2.22 2.22 0 0 1-0.3-0.74 4.7 4.7 0 0 1-0.09-1v-2.91a4.77 4.77 0 0 1 0.09-1 2.16 2.16 0 0 1 0.3-0.73 1.28 1.28 0 0 1 0.58-0.48 2.33 2.33 0 0 1 0.92-0.16 1.66 1.66 0 0 1 1.39 0.54 2.6 2.6 0 0 1 0.42 1.63v0.27h-0.66v-0.27a2.35 2.35 0 0 0-0.24-1.22 1 1 0 0 0-0.9-0.38 1.38 1.38 0 0 0-0.52 0.09 0.93 0.93 0 0 0-0.35 0.23 1 1 0 0 0-0.2 0.37 2.33 2.33 0 0 0-0.1 0.47 5.58 5.58 0 0 0 0 0.57v3.07a4.38 4.38 0 0 0 0.05 0.73 1.65 1.65 0 0 0 0.18 0.53 0.81 0.81 0 0 0 0.37 0.35 1.41 1.41 0 0 0 0.6 0.11 1 1 0 0 0 0.91-0.43 2.64 2.64 0 0 0 0.26-1.31v-0.89h-1.1v-0.52h1.7v3.62h-0.45l-0.09-0.85a1.29 1.29 0 0 1-1.31 0.97z"/><path class="c" d="m143 55.21v-7.49h1.7a1.83 1.83 0 0 1 1.43 0.48 2.06 2.06 0 0 1 0.43 1.41q0 1.55-1 1.77l1.16 3.83h-0.7l-1.1-3.68h-1.17v3.68zm0.71-4.2h1a1.15 1.15 0 0 0 0.94-0.33 2.27 2.27 0 0 0 0-2.11 1.14 1.14 0 0 0-0.93-0.32h-1z"/><path class="c" d="m147 55.21l1.58-7.49h0.74l1.59 7.49h-0.69l-0.37-2h-1.79l-0.38 2zm1.16-2.52h1.59l-0.8-4z"/><path class="c" d="m151.46 55.21l0.19-7.49h0.69l1.49 6.5 1.5-6.5h0.67l0.19 7.49h-0.59l-0.14-6-1.43 6h-0.45l-1.41-6-0.14 6z"/><path class="c" d="m157.1 55.21l0.19-7.49h0.71l1.49 6.5 1.5-6.5h0.71l0.19 7.49h-0.59l-0.14-6-1.43 6h-0.45l-1.41-6-0.14 6z"/><path class="c" d="m162.81 55.21v-7.49h2.7v0.54h-2v2.8h1.63v0.52h-1.63v3.09h2v0.53z"/><path class="c" d="m166.2 55.21v-7.49h1.7a1.83 1.83 0 0 1 1.43 0.48 2.06 2.06 0 0 1 0.43 1.41q0 1.55-1 1.77l1.16 3.83h-0.7l-1.1-3.68h-1.17v3.68zm0.71-4.2h1a1.15 1.15 0 0 0 0.94-0.33 2.27 2.27 0 0 0 0-2.11 1.14 1.14 0 0 0-0.93-0.32h-1z"/><path class="c" d="m170.59 56.29l-0.14-0.3a0.86 0.86 0 0 0 0.34-0.32 0.94 0.94 0 0 0 0.1-0.47h-0.41v-1h0.76v0.93a1.43 1.43 0 0 1-0.15 0.71 1.17 1.17 0 0 1-0.5 0.45z"/><path class="c" d="m173.61 55.21v-7.49h1.64a2.84 2.84 0 0 1 0.81 0.1 1.68 1.68 0 0 1 0.58 0.29 1.43 1.43 0 0 1 0.37 0.47 2.2 2.2 0 0 1 0.21 0.61 4 4 0 0 1 0.06 0.74v3a4.11 4.11 0 0 1-0.1 1 2 2 0 0 1-0.33 0.72 1.4 1.4 0 0 1-0.61 0.47 2.44 2.44 0 0 1-0.94 0.16zm0.71-0.53h0.94a1.58 1.58 0 0 0 0.59-0.1 1 1 0 0 0 0.38-0.25 1 1 0 0 0 0.21-0.41 2.56 2.56 0 0 0 0.1-0.51q0-0.25 0-0.62v-2.79a5.47 5.47 0 0 0 0-0.61 2 2 0 0 0-0.11-0.48 0.9 0.9 0 0 0-0.23-0.36 1 1 0 0 0-0.38-0.21 1.9 1.9 0 0 0-0.57-0.07h-0.92z"/><path class="c" d="m178.13 55.21v-7.49h2.7v0.54h-2v2.8h1.63v0.52h-1.63v3.09h2v0.53z"/><path class="c" d="m182.85 55.21l-1.75-7.49h0.67l1.41 6.2 1.33-6.2h0.66l-1.69 7.49z"/><path class="c" d="m185.75 55.21v-7.49h2.7v0.54h-2v2.8h1.63v0.52h-1.63v3.09h2v0.53z"/><path class="c" d="m189.14 55.21v-7.49h0.71v7h2.15v0.53z"/><path class="c" d="m194.16 55.3a2.32 2.32 0 0 1-0.92-0.16 1.34 1.34 0 0 1-0.6-0.48 2.16 2.16 0 0 1-0.31-0.72 4.13 4.13 0 0 1-0.09-0.94v-3.11a3.92 3.92 0 0 1 0.1-0.93 2 2 0 0 1 0.32-0.7 1.36 1.36 0 0 1 0.6-0.46 2.71 2.71 0 0 1 1.82 0 1.36 1.36 0 0 1 0.6 0.47 2 2 0 0 1 0.32 0.7 3.91 3.91 0 0 1 0.1 0.92v3.11a4.65 4.65 0 0 1-0.06 0.76 2.42 2.42 0 0 1-0.19 0.63 1.43 1.43 0 0 1-0.91 0.8 2.44 2.44 0 0 1-0.78 0.11zm-0.61-0.68a1.71 1.71 0 0 0 1.21 0 0.8 0.8 0 0 0 0.37-0.33 1.55 1.55 0 0 0 0.18-0.49 3.52 3.52 0 0 0 0.05-0.65v-3.39a3.49 3.49 0 0 0-0.05-0.65 1.5 1.5 0 0 0-0.18-0.49 0.78 0.78 0 0 0-0.37-0.32 1.78 1.78 0 0 0-1.21 0 0.78 0.78 0 0 0-0.37 0.32 1.5 1.5 0 0 0-0.18 0.49 3.46 3.46 0 0 0-0.05 0.65v3.39a3.5 3.5 0 0 0 0.05 0.65 1.55 1.55 0 0 0 0.18 0.49 0.8 0.8 0 0 0 0.37 0.33z"/><path class="c" d="m196.93 55.21v-7.49h1.8a2.29 2.29 0 0 1 0.84 0.14 1.26 1.26 0 0 1 0.56 0.41 1.73 1.73 0 0 1 0.29 0.62 3.29 3.29 0 0 1 0.09 0.81 2.81 2.81 0 0 1-0.1 0.76 1.86 1.86 0 0 1-0.3 0.62 1.36 1.36 0 0 1-0.56 0.43 2 2 0 0 1-0.82 0.15h-1.1v3.54zm0.71-4.07h0.9a1.3 1.3 0 0 0 1-0.32 1.63 1.63 0 0 0 0.3-1.11 1.85 1.85 0 0 0-0.26-1.16 1.32 1.32 0 0 0-1-0.3h-0.91z"/><path class="c" d="m201.11 55.21v-7.49h2.7v0.54h-2v2.8h1.63v0.52h-1.63v3.09h2v0.53z"/><path class="c" d="m204.5 55.21v-7.49h1.7a1.83 1.83 0 0 1 1.43 0.48 2.06 2.06 0 0 1 0.43 1.41q0 1.55-1 1.77l1.16 3.83h-0.7l-1.1-3.68h-1.17v3.68zm0.71-4.2h1a1.15 1.15 0 0 0 0.94-0.33 2.27 2.27 0 0 0 0-2.11 1.14 1.14 0 0 0-0.93-0.32h-1z"/><path class="c" d="m208.88 56.29l-0.14-0.3a0.86 0.86 0 0 0 0.34-0.32 0.94 0.94 0 0 0 0.1-0.47h-0.41v-1h0.76v0.93a1.43 1.43 0 0 1-0.15 0.71 1.17 1.17 0 0 1-0.5 0.45z"/><path class="c" d="m211.9 55.21v-7.49h1.64a2.84 2.84 0 0 1 0.81 0.1 1.68 1.68 0 0 1 0.58 0.29 1.43 1.43 0 0 1 0.37 0.47 2.2 2.2 0 0 1 0.21 0.61 4 4 0 0 1 0.06 0.74v3a4.11 4.11 0 0 1-0.1 1 2 2 0 0 1-0.33 0.72 1.4 1.4 0 0 1-0.61 0.47 2.44 2.44 0 0 1-0.94 0.16zm0.71-0.53h0.94a1.58 1.58 0 0 0 0.59-0.1 1 1 0 0 0 0.38-0.25 1 1 0 0 0 0.21-0.41 2.56 2.56 0 0 0 0.1-0.51q0-0.25 0-0.62v-2.79a5.47 5.47 0 0 0 0-0.61 2 2 0 0 0-0.11-0.48 0.9 0.9 0 0 0-0.23-0.36 1 1 0 0 0-0.38-0.21 1.9 1.9 0 0 0-0.57-0.07h-0.92z"/><path class="c" d="m216.43 55.21v-7.49h2.7v0.54h-2v2.8h1.63v0.52h-1.63v3.09h2v0.53z"/><path class="c" d="m221.42 55.3a1.68 1.68 0 0 1-1.35-0.54 2.53 2.53 0 0 1-0.53-1.5l0.63-0.18q0 0.3 0.08 0.53a2.39 2.39 0 0 0 0.14 0.45 1.18 1.18 0 0 0 0.23 0.36 1 1 0 0 0 0.34 0.23 1.21 1.21 0 0 0 0.47 0.09 1 1 0 0 0 1.06-1.08 1.6 1.6 0 0 0-0.06-0.45 1.51 1.51 0 0 0-0.19-0.41 3.12 3.12 0 0 0-0.28-0.36l-0.38-0.39-1.33-1.27a2 2 0 0 1-0.68-1.51 1.53 1.53 0 0 1 0.45-1.18 1.76 1.76 0 0 1 1.23-0.42 1.67 1.67 0 0 1 1.25 0.44 2.27 2.27 0 0 1 0.51 1.46l-0.6 0.15a2.37 2.37 0 0 0-0.33-1.14 0.92 0.92 0 0 0-0.81-0.36h-0.05a1.2 1.2 0 0 0-0.77 0.26 0.92 0.92 0 0 0-0.28 0.74 1.28 1.28 0 0 0 0.12 0.56 1.92 1.92 0 0 0 0.41 0.53l1.3 1.22a4.64 4.64 0 0 1 0.8 1 2.1 2.1 0 0 1 0.29 1.08 1.64 1.64 0 0 1-0.47 1.26 1.75 1.75 0 0 1-1.2 0.43z"/><path class="c" d="m223.8 55.21v-7.49h0.7v7.49z"/><path class="c" d="m227.22 55.31a2.12 2.12 0 0 1-0.89-0.17 1.31 1.31 0 0 1-0.57-0.49 2.22 2.22 0 0 1-0.3-0.74 4.69 4.69 0 0 1-0.09-1v-2.91a4.77 4.77 0 0 1 0.09-1 2.16 2.16 0 0 1 0.3-0.73 1.28 1.28 0 0 1 0.58-0.48 2.33 2.33 0 0 1 0.92-0.16 1.66 1.66 0 0 1 1.39 0.54 2.6 2.6 0 0 1 0.42 1.61v0.27h-0.66v-0.25a2.35 2.35 0 0 0-0.24-1.22 1 1 0 0 0-0.9-0.38 1.38 1.38 0 0 0-0.52 0.09 0.93 0.93 0 0 0-0.35 0.23 1 1 0 0 0-0.2 0.37 2.32 2.32 0 0 0-0.1 0.47 5.58 5.58 0 0 0 0 0.57v3.07a4.38 4.38 0 0 0 0.05 0.73 1.64 1.64 0 0 0 0.18 0.53 0.81 0.81 0 0 0 0.37 0.35 1.41 1.41 0 0 0 0.6 0.11 1 1 0 0 0 0.91-0.43 2.64 2.64 0 0 0 0.26-1.31v-0.89h-1.1v-0.52h1.75v3.62h-0.45l-0.09-0.85a1.29 1.29 0 0 1-1.36 0.97z"/><path class="c" d="m230 55.21v-7.49h0.52l2.38 5.81v-5.81h0.61v7.49h-0.51l-2.4-5.88v5.88z"/><path class="c" d="m234.55 55.21v-7.49h2.7v0.54h-2v2.8h1.63v0.52h-1.63v3.09h2v0.53z"/><path class="c" d="m237.94 55.21v-7.49h1.7a1.83 1.83 0 0 1 1.43 0.48 2.06 2.06 0 0 1 0.43 1.41q0 1.55-1 1.77l1.16 3.83h-0.7l-1.1-3.68h-1.17v3.68zm0.71-4.2h1a1.15 1.15 0 0 0 0.94-0.33 2.27 2.27 0 0 0 0-2.11 1.14 1.14 0 0 0-0.93-0.32h-1z"/><text class="d" transform="translate(21.68 83.59)">+1 902 412 5896
  <tspan class="e"><tspan y="11.03" x="0">me@omarsilva.net</tspan></tspan></text><path class="f" d="m31.26 105.09v3.13h-1.81v-2.92c0-0.73-0.26-1.23-0.92-1.23a1 1 0 0 0-0.93 0.66 1.24 1.24 0 0 0-0.06 0.44v3h-1.82s0-4.95 0-5.46h1.82v0.79a1.8 1.8 0 0 1 1.64-0.9c1.19 0.04 2.08 0.82 2.08 2.49zm-7.44-5a0.95 0.95 0 1 0 0 1.89 0.95 0.95 0 1 0 0-1.89zm-0.92 8.09h1.81v-5.46h-1.81z"/><text class="g" transform="translate(33.68 108.22)">linkedin.com/in/odcolon</text><path class="f" d="m25.46 120.16a4.91 4.91 0 0 0 4.94-4.94q0-0.11 0-0.22a3.53 3.53 0 0 0 0.87-0.9 3.46 3.46 0 0 1-1 0.27 1.74 1.74 0 0 0 0.76-1 3.48 3.48 0 0 1-1.1 0.42 1.74 1.74 0 0 0-3 1.58 4.93 4.93 0 0 1-3.58-1.82 1.74 1.74 0 0 0 0.54 2.32 1.72 1.72 0 0 1-0.79-0.22 1.74 1.74 0 0 0 1.39 1.7 1.73 1.73 0 0 1-0.78 0 1.74 1.74 0 0 0 1.62 1.21 3.49 3.49 0 0 1-2.16 0.74h-0.41a4.92 4.92 0 0 0 2.66 0.78"/><text class="g" transform="translate(33.68 119.99)">@ODSilva78</text><path class="h" d="m27.12 124.22a4.15 4.15 0 0 0-1.31 8.08c0.21 0 0.28-0.09 0.28-0.2s0-0.43 0-0.77c-1.15 0.25-1.4-0.49-1.4-0.49a1.1 1.1 0 0 0-0.46-0.61c-0.38-0.26 0-0.25 0-0.25a0.87 0.87 0 0 1 0.64 0.43 0.88 0.88 0 0 0 1.21 0.34 0.88 0.88 0 0 1 0.26-0.55 1.84 1.84 0 0 1-1.89-2 1.6 1.6 0 0 1 0.45-1.2 1.49 1.49 0 0 1 0-1.1s0.35-0.11 1.14 0.43a3.93 3.93 0 0 1 2.08 0c0.79-0.54 1.14-0.43 1.14-0.43a1.49 1.49 0 0 1 0 1.1 1.6 1.6 0 0 1 0.43 1.11 1.83 1.83 0 0 1-1.89 2 1 1 0 0 1 0.28 0.77v1.14s0.07 0.24 0.28 0.2a4.15 4.15 0 0 0-1.31-8.08zM24.54 130.17 24.54 130.17"/><path class="f" d="m24.54 130.17s0 0-0.07 0 0 0 0-0.06 0 0 0.07 0 0 0 0 0.06zm-0.05 0"/><path class="f" d="m24.71 130.36s-0.06 0-0.08 0a0.06 0.06 0 0 1 0-0.09s0.06 0 0.09 0 0 0.07 0 0.09z"/><path class="f" d="m24.87 130.6s-0.07 0-0.09 0 0-0.08 0-0.1 0.07 0 0.09 0 0 0.08 0 0.1z"/><path class="f" d="m25.1 130.83s-0.07 0-0.11 0a0.08 0.08 0 0 1 0-0.11s0.07 0 0.11 0 0 0.08 0 0.11z"/><path class="f" d="m25.41 131s-0.06 0-0.1 0-0.08-0.05-0.07-0.09 0.06 0 0.1 0 0.08 0.05 0.07 0.08z"/><path class="f" d="m25.75 131s0 0.06-0.09 0.06-0.09 0-0.09-0.06 0-0.06 0.09-0.06 0.09 0 0.09 0.06z"/><path class="f" d="m26.06 130.93s0 0.07-0.08 0.08-0.09 0-0.1 0 0-0.07 0.08-0.08 0.09 0 0.1 0z"/><text class="g" transform="translate(33.68 131.71)">@ODCSilva</text></svg>