<svg xmlns="http://www.w3.org/2000/svg" viewBox="0 0 425.56 124"><defs><style>.cls-1{fill:#f1f2f2;}.cls-2{fill:#f57c00;}</style></defs><title>logo</title><g id="Layer_2" data-name="Layer 2"><g id="Header"><path class="cls-1" d="M32.72,83.31a25.46,25.46,0,0,1-8.25,1.21,25.68,25.68,0,0,1-8.27-1.21A15.87,15.87,0,0,1,10.38,80a16,16,0,0,1-3.67-5.28,26.91,26.91,0,0,1-2-6.71,50.34,50.34,0,0,1-.57-8V24.18a47.05,47.05,0,0,1,.59-7.85A24.57,24.57,0,0,1,6.81,9.78a15.74,15.74,0,0,1,3.77-5.08,16.56,16.56,0,0,1,5.8-3.2A25.63,25.63,0,0,1,24.47.35a24.43,24.43,0,0,1,9.71,1.73,14.45,14.45,0,0,1,6.29,5,22,22,0,0,1,3.29,7.46,41.11,41.11,0,0,1,1,9.64v36a49.93,49.93,0,0,1-.57,7.93,26.58,26.58,0,0,1-2,6.66A15.64,15.64,0,0,1,38.54,80,16.38,16.38,0,0,1,32.72,83.31ZM17.21,78.65A17.82,17.82,0,0,0,24.47,80a17.82,17.82,0,0,0,7.26-1.31,9.89,9.89,0,0,0,4.53-3.89A17.9,17.9,0,0,0,38.52,69a38.27,38.27,0,0,0,.67-7.68V23.38a39.36,39.36,0,0,0-.64-7.65A17,17,0,0,0,36.29,10a10,10,0,0,0-4.56-3.84,18.13,18.13,0,0,0-7.26-1.29,18.13,18.13,0,0,0-7.26,1.29A10,10,0,0,0,12.66,10a16.92,16.92,0,0,0-2.25,5.75,39.29,39.29,0,0,0-.64,7.65v37.9A39.67,39.67,0,0,0,10.4,69a17.17,17.17,0,0,0,2.25,5.8A10,10,0,0,0,17.21,78.65Z"/><path class="cls-1" d="M52.25,83.43,54.68,1.29h5.45L77.56,75.4,95.15,1.29h5.7l2.38,82.14H98.42l-2-68.91L79.64,83.43h-4L59.08,14.66l-2,68.76Z"/><path class="cls-1" d="M108.06,83.43,125.31,1.29h6.34L149,83.43h-5.55l-4.26-22.69h-21.3l-4.41,22.69Zm10.65-26.8h19.72L128.53,8Z"/><path class="cls-1" d="M154.91,83.43V1.29h20a24.12,24.12,0,0,1,7.46,1,14.43,14.43,0,0,1,5.18,2.8,13.39,13.39,0,0,1,3.22,4.41,21.07,21.07,0,0,1,1.71,5.52,40.1,40.1,0,0,1,.47,6.44,45.94,45.94,0,0,1-.3,5.45,25,25,0,0,1-1.11,4.93,15.22,15.22,0,0,1-2.13,4.24,11.76,11.76,0,0,1-3.52,3.1A14,14,0,0,1,180.77,41l13.28,42.46h-5.5L175.72,42H160.46V83.43Zm5.55-45.63h14.12A16.59,16.59,0,0,0,181,36.71a8.37,8.37,0,0,0,4-3.32,14.78,14.78,0,0,0,1.93-5,36.65,36.65,0,0,0,.54-6.86q0-8.27-2.77-12.06T174.53,5.65H160.46Z"/><path class="cls-1" d="M236.67,84.72q-12.19,0-18-6.14T212.6,58.06l17-2.23a44.13,44.13,0,0,0,.45,6.84,12.76,12.76,0,0,0,1.29,4.24A5.65,5.65,0,0,0,233.18,69a4.21,4.21,0,0,0,2.25.59q3.37,0,3.37-4.85a15,15,0,0,0-2.16-8.17A35,35,0,0,0,229.74,49l-5.2-4.41q-2.82-2.43-4.63-4.31a34.82,34.82,0,0,1-3.67-4.63,20.05,20.05,0,0,1-2.75-6.07,28.43,28.43,0,0,1-.89-7.38q0-10.65,6.42-16.42T236.72,0q20.21,0,20.36,24l-17.44,1.73q0-3.22-.07-4.83a21.75,21.75,0,0,0-.42-3.32A4.21,4.21,0,0,0,238,15.18a3,3,0,0,0-2.06-.67,3.09,3.09,0,0,0-2.77,1.93,8.44,8.44,0,0,0-.94,3.81,11.7,11.7,0,0,0,.17,2q.17,1,.32,1.76a6,6,0,0,0,.64,1.68q.5.92.74,1.46a7.05,7.05,0,0,0,1,1.44q.74.89,1,1.24a11.16,11.16,0,0,0,1.19,1.24l1.14,1.07,1.29,1.14,1.19,1.06,4.76,4.21a65.41,65.41,0,0,1,5.13,5.1,41,41,0,0,1,4,5.47,24.54,24.54,0,0,1,2.9,6.74,30.56,30.56,0,0,1,1,7.85,20.22,20.22,0,0,1-6.07,14.91Q246.58,84.72,236.67,84.72Z"/><path class="cls-1" d="M262.57,83.43V1.29h20.07V83.43Z"/><path class="cls-1" d="M289.6,83.43V1.29h20.11V70H328V83.43Z"/><path class="cls-1" d="M339.22,83.43,325.4,1.29h16.89l7.63,54.35,7-54.35h18.18L361,83.43Z"/><path class="cls-1" d="M372.25,83.43,387.16,1.29h23.38l14.76,82.14H406.93L404.35,67H393.7l-2.48,16.4Zm23-28h7.38L399,24.77Z"/><path class="cls-2" d="M0,115.43V89.53H6.22A7.91,7.91,0,0,1,9.14,90a4.37,4.37,0,0,1,1.92,1.41,6,6,0,0,1,1,2.15,11.39,11.39,0,0,1,.31,2.81A9.72,9.72,0,0,1,12.05,99a6.42,6.42,0,0,1-1,2.14,4.71,4.71,0,0,1-1.92,1.48,7,7,0,0,1-2.84.53H2.45v12.27Zm2.45-14.08H5.56A4.49,4.49,0,0,0,9,100.25q1-1.1,1-3.85,0-3-.91-4t-3.5-1H2.45Z"/><path class="cls-2" d="M14.44,115.43V89.53h5.89q3.45,0,4.94,1.66a7.12,7.12,0,0,1,1.48,4.88q0,5.36-3.61,6.11l4,13.25H24.76L21,102.7H16.9v12.73ZM16.9,100.9h3.3a4,4,0,0,0,3.27-1.15,5.88,5.88,0,0,0,.92-3.68,5.87,5.87,0,0,0-.87-3.61q-.88-1.11-3.23-1.11H16.9Z"/><path class="cls-2" d="M36,115.76a8,8,0,0,1-3.2-.57,4.63,4.63,0,0,1-2.06-1.67,7.48,7.48,0,0,1-1.07-2.5,14.29,14.29,0,0,1-.33-3.24V97a13.58,13.58,0,0,1,.34-3.2,6.93,6.93,0,0,1,1.09-2.43,4.71,4.71,0,0,1,2.07-1.6A8.2,8.2,0,0,1,36,89.25a8.2,8.2,0,0,1,3.16.55,4.69,4.69,0,0,1,2.07,1.61,7,7,0,0,1,1.09,2.44A13.54,13.54,0,0,1,42.61,97v10.78a16.09,16.09,0,0,1-.2,2.63,8.37,8.37,0,0,1-.67,2.19,4.94,4.94,0,0,1-3.13,2.76A8.46,8.46,0,0,1,36,115.76Zm-2.09-2.35a5.92,5.92,0,0,0,4.19,0,2.77,2.77,0,0,0,1.29-1.15,5.38,5.38,0,0,0,.63-1.7,12.15,12.15,0,0,0,.18-2.25V96.59A12,12,0,0,0,40,94.35a5.2,5.2,0,0,0-.62-1.68A2.71,2.71,0,0,0,38,91.55a6.15,6.15,0,0,0-4.19,0,2.71,2.71,0,0,0-1.29,1.12,5.19,5.19,0,0,0-.63,1.68,12,12,0,0,0-.18,2.24v11.72a12.11,12.11,0,0,0,.18,2.25,5.36,5.36,0,0,0,.63,1.7A2.77,2.77,0,0,0,33.86,113.41Z"/><path class="cls-2" d="M51.44,115.78a7.34,7.34,0,0,1-3.06-.58,4.54,4.54,0,0,1-2-1.7,7.68,7.68,0,0,1-1-2.57,16.26,16.26,0,0,1-.31-3.39V97.42a16.51,16.51,0,0,1,.3-3.4,7.49,7.49,0,0,1,1-2.54,4.43,4.43,0,0,1,2-1.67,8.07,8.07,0,0,1,3.2-.56q3.36,0,4.81,1.87a9,9,0,0,1,1.45,5.59v.92h-2.3V96.7a8.14,8.14,0,0,0-.83-4.21,3.4,3.4,0,0,0-3.11-1.3,4.77,4.77,0,0,0-1.8.3,3.21,3.21,0,0,0-1.2.8,3.5,3.5,0,0,0-.7,1.3,8.06,8.06,0,0,0-.34,1.63,19.32,19.32,0,0,0-.09,2v10.64a15.17,15.17,0,0,0,.18,2.54,5.7,5.7,0,0,0,.63,1.84,2.81,2.81,0,0,0,1.29,1.2,4.87,4.87,0,0,0,2.07.39,3.37,3.37,0,0,0,3.16-1.48,9.14,9.14,0,0,0,.88-4.55V104.7H51.91v-1.8H58v12.53H56.41l-.3-2.94A4.46,4.46,0,0,1,51.44,115.78Z"/><path class="cls-2" d="M61.17,115.43V89.53h5.89q3.45,0,4.94,1.66a7.12,7.12,0,0,1,1.48,4.88q0,5.36-3.61,6.11l4,13.25H71.48l-3.8-12.73H63.62v12.73Zm2.45-14.53h3.3a4,4,0,0,0,3.27-1.15,5.88,5.88,0,0,0,.92-3.68,5.87,5.87,0,0,0-.87-3.61q-.88-1.11-3.23-1.11H63.62Z"/><path class="cls-2" d="M75.16,115.43l5.47-25.91h2.56l5.5,25.91H86.3L85,108.51H78.83l-1.31,6.92Zm4-8.7h5.52l-2.77-14Z"/><path class="cls-2" d="M90.56,115.43l.67-25.91h2.39L98.78,112,104,89.53h2.45l.64,25.91h-2l-.5-20.66-5,20.66H98L93.12,94.83l-.5,20.61Z"/><path class="cls-2" d="M110.1,115.43l.67-25.91h2.39L118.32,112l5.19-22.48H126l.64,25.91h-2l-.5-20.66-5,20.66h-1.56l-4.89-20.61-.5,20.61Z"/><path class="cls-2" d="M129.85,115.43V89.53h9.36V91.4h-6.91v9.7H138v1.81h-5.66v10.69h7v1.83Z"/><path class="cls-2" d="M141.58,115.43V89.53h5.89q3.45,0,4.94,1.66a7.12,7.12,0,0,1,1.48,4.88q0,5.36-3.61,6.11l4,13.25h-2.41l-3.8-12.73H144v12.73ZM144,100.9h3.3a4,4,0,0,0,3.27-1.15,5.88,5.88,0,0,0,.92-3.68,5.87,5.87,0,0,0-.87-3.61q-.88-1.11-3.23-1.11H144Z"/><path class="cls-2" d="M156.76,119.17l-.48-1a3,3,0,0,0,1.18-1.09,3.26,3.26,0,0,0,.35-1.61H156.4V112H159v3.23a5,5,0,0,1-.52,2.46A4,4,0,0,1,156.76,119.17Z"/><path class="cls-2" d="M167.21,115.43V89.53h5.67a9.84,9.84,0,0,1,2.79.36,5.82,5.82,0,0,1,2,1A5,5,0,0,1,179,92.5a7.6,7.6,0,0,1,.71,2.09,13.9,13.9,0,0,1,.21,2.55v10.3a14.23,14.23,0,0,1-.34,3.31,7,7,0,0,1-1.12,2.5,4.84,4.84,0,0,1-2.12,1.63,8.45,8.45,0,0,1-3.24.55Zm2.45-1.83h3.27a5.48,5.48,0,0,0,2-.34,3.51,3.51,0,0,0,1.31-.86A3.6,3.6,0,0,0,177,111a8.86,8.86,0,0,0,.34-1.77q.07-.87.07-2.15V97.39a18.92,18.92,0,0,0-.1-2.12,7,7,0,0,0-.39-1.65,3.11,3.11,0,0,0-.8-1.23,3.52,3.52,0,0,0-1.33-.72,6.58,6.58,0,0,0-2-.26h-3.19Z"/><path class="cls-2" d="M182.86,115.43V89.53h9.36V91.4h-6.91v9.7H191v1.81h-5.66v10.69h7v1.83Z"/><path class="cls-2" d="M199.18,115.43l-6.06-25.91h2.33L200.34,111l4.61-21.44h2.3l-5.84,25.91Z"/><path class="cls-2" d="M209.23,115.43V89.53h9.36V91.4h-6.91v9.7h5.66v1.81h-5.66v10.69h7v1.83Z"/><path class="cls-2" d="M221,115.43V89.53h2.45v24.08h7.38v1.83Z"/><path class="cls-2" d="M238.31,115.76a8,8,0,0,1-3.2-.57,4.62,4.62,0,0,1-2.06-1.67A7.48,7.48,0,0,1,232,111a14.29,14.29,0,0,1-.33-3.24V97a13.56,13.56,0,0,1,.34-3.2,6.92,6.92,0,0,1,1.09-2.43,4.71,4.71,0,0,1,2.07-1.6,9.38,9.38,0,0,1,6.31,0,4.7,4.7,0,0,1,2.07,1.61,7,7,0,0,1,1.09,2.44A13.54,13.54,0,0,1,245,97v10.78a16.09,16.09,0,0,1-.2,2.63,8.39,8.39,0,0,1-.67,2.19,4.94,4.94,0,0,1-3.13,2.76A8.46,8.46,0,0,1,238.31,115.76Zm-2.09-2.35a5.92,5.92,0,0,0,4.19,0,2.77,2.77,0,0,0,1.29-1.15,5.38,5.38,0,0,0,.63-1.7,12.2,12.2,0,0,0,.18-2.25V96.59a12.07,12.07,0,0,0-.18-2.24,5.2,5.2,0,0,0-.62-1.68,2.71,2.71,0,0,0-1.29-1.12,6.15,6.15,0,0,0-4.19,0,2.71,2.71,0,0,0-1.29,1.12,5.18,5.18,0,0,0-.62,1.68,12,12,0,0,0-.18,2.24v11.72a12.11,12.11,0,0,0,.18,2.25,5.35,5.35,0,0,0,.63,1.7A2.77,2.77,0,0,0,236.22,113.41Z"/><path class="cls-2" d="M247.93,115.43V89.53h6.22a7.91,7.91,0,0,1,2.92.48A4.37,4.37,0,0,1,259,91.43a6,6,0,0,1,1,2.15,11.39,11.39,0,0,1,.31,2.81A9.72,9.72,0,0,1,260,99a6.43,6.43,0,0,1-1,2.14,4.72,4.72,0,0,1-1.92,1.48,7,7,0,0,1-2.84.53h-3.8v12.27Zm2.45-14.08h3.11a4.49,4.49,0,0,0,3.41-1.1,5.66,5.66,0,0,0,1-3.85q0-3-.91-4t-3.5-1h-3.14Z"/><path class="cls-2" d="M262.37,115.43V89.53h9.36V91.4h-6.91v9.7h5.66v1.81h-5.66v10.69h7v1.83Z"/><path class="cls-2" d="M274.1,115.43V89.53H280q3.45,0,4.94,1.66a7.12,7.12,0,0,1,1.48,4.88q0,5.36-3.61,6.11l4,13.25h-2.41l-3.8-12.73h-4.06v12.73Zm2.45-14.53h3.3a4,4,0,0,0,3.27-1.15,5.88,5.88,0,0,0,.92-3.68,5.87,5.87,0,0,0-.87-3.61q-.88-1.11-3.23-1.11h-3.37Z"/><path class="cls-2" d="M289.28,119.17l-.48-1A3,3,0,0,0,290,117a3.26,3.26,0,0,0,.35-1.61h-1.41V112h2.63v3.23a5,5,0,0,1-.52,2.46A4,4,0,0,1,289.28,119.17Z"/><path class="cls-2" d="M299.73,115.43V89.53h5.67a9.84,9.84,0,0,1,2.79.36,5.82,5.82,0,0,1,2,1,5,5,0,0,1,1.3,1.61,7.6,7.6,0,0,1,.71,2.09,13.9,13.9,0,0,1,.21,2.55v10.3a14.23,14.23,0,0,1-.34,3.31,7,7,0,0,1-1.12,2.5,4.84,4.84,0,0,1-2.12,1.63,8.45,8.45,0,0,1-3.24.55Zm2.45-1.83h3.27a5.48,5.48,0,0,0,2-.34,3.51,3.51,0,0,0,1.31-.86,3.6,3.6,0,0,0,.74-1.43,8.86,8.86,0,0,0,.34-1.77q.07-.87.07-2.15V97.39a18.92,18.92,0,0,0-.1-2.12,7,7,0,0,0-.39-1.65,3.11,3.11,0,0,0-.8-1.23,3.52,3.52,0,0,0-1.33-.72,6.58,6.58,0,0,0-2-.26h-3.19Z"/><path class="cls-2" d="M315.38,115.43V89.53h9.36V91.4h-6.91v9.7h5.66v1.81h-5.66v10.69h7v1.83Z"/><path class="cls-2" d="M332.65,115.75A5.8,5.8,0,0,1,328,113.9a8.77,8.77,0,0,1-1.84-5.18l2.17-.62q.11,1,.27,1.82a8.27,8.27,0,0,0,.48,1.55,4.07,4.07,0,0,0,.78,1.24,3.38,3.38,0,0,0,1.17.78,4.2,4.2,0,0,0,1.63.3q3.66,0,3.66-3.75a5.55,5.55,0,0,0-.21-1.55,5.22,5.22,0,0,0-.67-1.42,10.79,10.79,0,0,0-1-1.26q-.51-.56-1.32-1.36L328.56,100a7,7,0,0,1-2.34-5.22,5.3,5.3,0,0,1,1.57-4.09A6.08,6.08,0,0,1,332,89.25h.11a5.79,5.79,0,0,1,4.33,1.53q1.53,1.56,1.78,5l-2.06.53a8.21,8.21,0,0,0-1.12-3.94,3.19,3.19,0,0,0-2.81-1.25h-.19a4.14,4.14,0,0,0-2.68.89,3.18,3.18,0,0,0-1,2.55,4.42,4.42,0,0,0,.41,1.93,6.64,6.64,0,0,0,1.41,1.84l4.56,4.33a16.07,16.07,0,0,1,2.78,3.41,7.26,7.26,0,0,1,1,3.74,5.69,5.69,0,0,1-1.63,4.36A6.06,6.06,0,0,1,332.65,115.75Z"/><path class="cls-2" d="M340.91,115.43V89.53h2.41v25.91Z"/><path class="cls-2" d="M352.74,115.78a7.34,7.34,0,0,1-3.06-.58,4.54,4.54,0,0,1-2-1.7,7.68,7.68,0,0,1-1-2.57,16.23,16.23,0,0,1-.31-3.39V97.42a16.51,16.51,0,0,1,.3-3.4,7.49,7.49,0,0,1,1-2.54,4.43,4.43,0,0,1,2-1.67,8.06,8.06,0,0,1,3.2-.56q3.36,0,4.81,1.87a9,9,0,0,1,1.45,5.59v.92h-2.3V96.7a8.14,8.14,0,0,0-.83-4.21,3.4,3.4,0,0,0-3.11-1.3,4.77,4.77,0,0,0-1.8.3,3.21,3.21,0,0,0-1.2.8,3.5,3.5,0,0,0-.7,1.3,8,8,0,0,0-.34,1.63,19.32,19.32,0,0,0-.09,2v10.64a15.17,15.17,0,0,0,.18,2.54,5.68,5.68,0,0,0,.63,1.84,2.81,2.81,0,0,0,1.29,1.2,4.87,4.87,0,0,0,2.07.39,3.37,3.37,0,0,0,3.16-1.48,9.14,9.14,0,0,0,.88-4.55V104.7h-3.81v-1.8h6.06v12.53h-1.56l-.3-2.94A4.46,4.46,0,0,1,352.74,115.78Z"/><path class="cls-2" d="M362.47,115.43V89.53h1.8l8.25,20.11V89.53h2.09v25.91h-1.72l-8.31-20.34v20.34Z"/><path class="cls-2" d="M378.08,115.43V89.53h9.36V91.4h-6.91v9.7h5.66v1.81h-5.66v10.69h7v1.83Z"/><path class="cls-2" d="M389.81,115.43V89.53h5.89q3.45,0,4.94,1.66a7.12,7.12,0,0,1,1.48,4.88q0,5.36-3.61,6.11l4,13.25h-2.41l-3.8-12.73h-4.06v12.73Zm2.45-14.53h3.3a4,4,0,0,0,3.27-1.15,5.88,5.88,0,0,0,.92-3.68,5.87,5.87,0,0,0-.87-3.61q-.88-1.11-3.23-1.11h-3.37Z"/><path class="cls-2" d="M420.94,74.91"/><path class="cls-2" d="M424.22,124H409.65a1.28,1.28,0,0,1-1.34-1.21V82a1.28,1.28,0,0,1,1.34-1.21h14.57A1.28,1.28,0,0,1,425.56,82v40.8A1.28,1.28,0,0,1,424.22,124Z"/></g></g></svg>