<svg xmlns="http://www.w3.org/2000/svg" viewBox="0 0 359.32 99.48"><defs><style>.a{fill:#f0f1f2;}.b{fill:#ff9800;}</style></defs><title>logo_1</title><path class="a" d="M23.32,68a20.78,20.78,0,0,1-6.74,1,21,21,0,0,1-6.76-1,13,13,0,0,1-4.75-2.71,13.08,13.08,0,0,1-3-4.31A22,22,0,0,1,.47,55.53,41.11,41.11,0,0,1,0,49V19.74a38.41,38.41,0,0,1,.49-6.41A20.07,20.07,0,0,1,2.16,8,12.85,12.85,0,0,1,5.24,3.84,13.53,13.53,0,0,1,10,1.23a20.93,20.93,0,0,1,6.61-1A20,20,0,0,1,24.52,1.7a11.8,11.8,0,0,1,5.14,4.09,17.94,17.94,0,0,1,2.69,6.09,33.57,33.57,0,0,1,.83,7.87V49.15a40.77,40.77,0,0,1-.47,6.47,21.7,21.7,0,0,1-1.62,5.44,12.77,12.77,0,0,1-3,4.27A13.37,13.37,0,0,1,23.32,68Zm-12.66-3.8a14.55,14.55,0,0,0,5.93,1.07,14.56,14.56,0,0,0,5.93-1.07A8.08,8.08,0,0,0,26.22,61a14.62,14.62,0,0,0,1.84-4.73A31.26,31.26,0,0,0,28.6,50V19.1a32.13,32.13,0,0,0-.53-6.25,13.84,13.84,0,0,0-1.84-4.69A8.13,8.13,0,0,0,22.51,5,14.8,14.8,0,0,0,16.59,4,14.8,14.8,0,0,0,10.66,5,8.12,8.12,0,0,0,6.94,8.15,13.82,13.82,0,0,0,5.1,12.84a32.08,32.08,0,0,0-.53,6.25V50a32.4,32.4,0,0,0,.53,6.27A14,14,0,0,0,6.94,61,8.2,8.2,0,0,0,10.66,64.22Z"/><path class="a" d="M39.27,68.13l2-67.08H45.7L59.94,61.57,74.3,1.05H79L80.9,68.13H77L75.32,11.85,61.64,68.13H58.36L44.85,12,43.19,68.13Z"/><path class="a" d="M84.85,68.13,98.93,1.05h5.18l14.2,67.08h-4.53L110.3,49.6H92.9L89.3,68.13Zm8.7-21.89h16.1L101.56,6.51Z"/><path class="a" d="M123.11,68.13V1.05h16.3a19.69,19.69,0,0,1,6.09.85,11.78,11.78,0,0,1,4.23,2.29,10.92,10.92,0,0,1,2.63,3.6,17.2,17.2,0,0,1,1.4,4.51,32.75,32.75,0,0,1,.38,5.26,37.54,37.54,0,0,1-.24,4.45,20.38,20.38,0,0,1-.91,4,12.42,12.42,0,0,1-1.74,3.46A9.6,9.6,0,0,1,148.37,32a11.46,11.46,0,0,1-4.15,1.44l10.84,34.67h-4.49L140.1,34.31H127.64V68.13Zm4.53-37.26h11.53a13.55,13.55,0,0,0,5.26-.89,6.84,6.84,0,0,0,3.24-2.71,12.06,12.06,0,0,0,1.58-4.11,29.93,29.93,0,0,0,.44-5.6q0-6.76-2.27-9.85t-8.29-3.1H127.64Z"/><path class="a" d="M189.87,69.18q-10,0-14.67-5t-5-16.75l13.92-1.82a36,36,0,0,0,.36,5.58,10.42,10.42,0,0,0,1.05,3.46A4.62,4.62,0,0,0,187,56.32a3.44,3.44,0,0,0,1.84.49q2.75,0,2.75-4a12.26,12.26,0,0,0-1.76-6.68,28.55,28.55,0,0,0-5.64-6.11L180,36.45q-2.31-2-3.78-3.52a28.45,28.45,0,0,1-3-3.78,16.37,16.37,0,0,1-2.25-5,23.2,23.2,0,0,1-.73-6q0-8.7,5.24-13.41T189.91,0q16.51,0,16.63,19.58L192.3,21q0-2.63-.06-3.94a17.74,17.74,0,0,0-.34-2.71A3.44,3.44,0,0,0,191,12.4a2.47,2.47,0,0,0-1.68-.55A2.52,2.52,0,0,0,187,13.43a6.9,6.9,0,0,0-.77,3.11,9.57,9.57,0,0,0,.14,1.66q.14.81.26,1.44A4.88,4.88,0,0,0,187.2,21q.4.75.61,1.19a5.76,5.76,0,0,0,.81,1.17q.61.73.81,1a9.1,9.1,0,0,0,1,1l.93.87,1.05.93,1,.87,3.88,3.44a53.4,53.4,0,0,1,4.19,4.17,33.46,33.46,0,0,1,3.3,4.47,20,20,0,0,1,2.37,5.5,25,25,0,0,1,.79,6.41,16.51,16.51,0,0,1-5,12.18Q198,69.18,189.87,69.18Z"/><path class="a" d="M211,68.13V1.05H227.4V68.13Z"/><path class="a" d="M233.09,68.13V1.05h16.43V57.16h14.93v11Z"/><path class="a" d="M273.61,68.13,262.33,1.05h13.8l6.23,44.38,5.7-44.38H302.9L291.42,68.13Z"/><path class="a" d="M300.58,68.13,312.76,1.05h19.1l12.06,67.08h-15l-2.1-13.39h-8.7l-2,13.39ZM319.4,45.27h6l-3-25Z"/><path class="b" d="M.11,96.27V74.05H5.45A6.78,6.78,0,0,1,8,74.47,3.75,3.75,0,0,1,9.6,75.68a5.13,5.13,0,0,1,.87,1.84,9.78,9.78,0,0,1,.27,2.41,8.33,8.33,0,0,1-.29,2.26A5.5,5.5,0,0,1,9.55,84,4,4,0,0,1,7.91,85.3a6,6,0,0,1-2.43.46H2.22V96.27ZM2.22,84.2H4.88a3.86,3.86,0,0,0,2.93-.94,4.85,4.85,0,0,0,.88-3.3,5.48,5.48,0,0,0-.78-3.45,3.92,3.92,0,0,0-3-.89H2.22Z"/><path class="b" d="M12.5,96.27V74.05h5.05q3,0,4.24,1.43a6.11,6.11,0,0,1,1.27,4.19q0,4.6-3.1,5.24l3.44,11.37H21.35L18.09,85.35H14.61V96.27Zm2.1-12.47h2.83a3.41,3.41,0,0,0,2.8-1A5,5,0,0,0,21,79.67a5,5,0,0,0-.75-3.1,3.37,3.37,0,0,0-2.77-1H14.61Z"/><path class="b" d="M31,96.56a6.9,6.9,0,0,1-2.74-.49,4,4,0,0,1-1.77-1.43,6.42,6.42,0,0,1-.92-2.14,12.26,12.26,0,0,1-.28-2.78V80.49a11.65,11.65,0,0,1,.29-2.75,5.94,5.94,0,0,1,.94-2.08,4,4,0,0,1,1.78-1.37A7,7,0,0,1,31,73.81a7,7,0,0,1,2.71.47,4,4,0,0,1,1.78,1.38,6,6,0,0,1,.94,2.09,11.62,11.62,0,0,1,.29,2.73v9.25A13.77,13.77,0,0,1,36.49,92a7.18,7.18,0,0,1-.58,1.88,4.24,4.24,0,0,1-2.69,2.37A7.25,7.25,0,0,1,31,96.56Zm-1.8-2a5.07,5.07,0,0,0,3.59,0,2.38,2.38,0,0,0,1.11-1,4.61,4.61,0,0,0,.54-1.46,10.42,10.42,0,0,0,.15-1.93V80.11a10.31,10.31,0,0,0-.15-1.92,4.46,4.46,0,0,0-.54-1.44,2.33,2.33,0,0,0-1.11-1,5.28,5.28,0,0,0-3.59,0,2.33,2.33,0,0,0-1.11,1,4.45,4.45,0,0,0-.54,1.44,10.26,10.26,0,0,0-.15,1.92V90.16a10.37,10.37,0,0,0,.15,1.93,4.6,4.6,0,0,0,.54,1.46A2.37,2.37,0,0,0,29.16,94.54Z"/><path class="b" d="M44.24,96.57a6.3,6.3,0,0,1-2.63-.5,3.9,3.9,0,0,1-1.7-1.45,6.59,6.59,0,0,1-.88-2.2,14,14,0,0,1-.27-2.91V80.82A14.16,14.16,0,0,1,39,77.91a6.43,6.43,0,0,1,.88-2.18,3.8,3.8,0,0,1,1.74-1.43,6.92,6.92,0,0,1,2.74-.48,4.92,4.92,0,0,1,4.13,1.6,7.72,7.72,0,0,1,1.25,4.79V81h-2V80.2a7,7,0,0,0-.71-3.61,2.92,2.92,0,0,0-2.67-1.12,4.09,4.09,0,0,0-1.54.26,2.75,2.75,0,0,0-1,.68,3,3,0,0,0-.6,1.11,6.93,6.93,0,0,0-.29,1.4,16.52,16.52,0,0,0-.07,1.69v9.13A13,13,0,0,0,41,91.93a4.88,4.88,0,0,0,.54,1.58,2.41,2.41,0,0,0,1.11,1,4.18,4.18,0,0,0,1.78.34,2.89,2.89,0,0,0,2.71-1.27,7.84,7.84,0,0,0,.76-3.9V87.07H44.64V85.53h5.2V96.27H48.5l-.25-2.52A3.83,3.83,0,0,1,44.24,96.57Z"/><path class="b" d="M52.58,96.27V74.05h5.05q3,0,4.24,1.43a6.11,6.11,0,0,1,1.27,4.19q0,4.6-3.1,5.24l3.44,11.37H61.43L58.17,85.35H54.69V96.27Zm2.1-12.47h2.83a3.41,3.41,0,0,0,2.8-1,5,5,0,0,0,.79-3.16,5,5,0,0,0-.75-3.1,3.37,3.37,0,0,0-2.77-1H54.69Z"/><path class="b" d="M64.59,96.27l4.69-22.22h2.2l4.72,22.22H74.14L73,90.34H67.74l-1.13,5.94ZM68,88.81h4.73l-2.37-12Z"/><path class="b" d="M77.79,96.27l.58-22.22h2.05l4.42,19.29,4.45-19.29h2.1l.55,22.22H90.21l-.43-17.72L85.53,96.27H84.19L80,78.6l-.43,17.68Z"/><path class="b" d="M94.55,96.27l.58-22.22h2.05l4.42,19.29,4.45-19.29h2.1l.55,22.22H107l-.43-17.72-4.25,17.72h-1.34L96.75,78.6l-.43,17.68Z"/><path class="b" d="M111.5,96.27V74.05h8v1.61h-5.92V84h4.85v1.55h-4.85v9.17h6v1.57Z"/><path class="b" d="M121.56,96.27V74.05h5.05q3,0,4.24,1.43a6.11,6.11,0,0,1,1.27,4.19q0,4.6-3.1,5.24l3.44,11.37h-2.06l-3.26-10.92h-3.48V96.27Zm2.1-12.47h2.83a3.41,3.41,0,0,0,2.8-1,5,5,0,0,0,.79-3.16,5,5,0,0,0-.75-3.1,3.37,3.37,0,0,0-2.77-1h-2.89Z"/><path class="b" d="M134.58,99.48l-.42-.88a2.57,2.57,0,0,0,1-.94,2.8,2.8,0,0,0,.3-1.38h-1.21v-3h2.25v2.77a4.25,4.25,0,0,1-.44,2.11A3.46,3.46,0,0,1,134.58,99.48Z"/><path class="b" d="M143.55,96.27V74.05h4.87a8.43,8.43,0,0,1,2.39.31,5,5,0,0,1,1.72.86,4.25,4.25,0,0,1,1.11,1.38,6.52,6.52,0,0,1,.61,1.8,11.91,11.91,0,0,1,.18,2.18v8.83a12.21,12.21,0,0,1-.29,2.84,6,6,0,0,1-1,2.14,4.15,4.15,0,0,1-1.82,1.4,7.24,7.24,0,0,1-2.78.48Zm2.1-1.57h2.8a4.7,4.7,0,0,0,1.75-.29,3,3,0,0,0,1.13-.74,3.09,3.09,0,0,0,.64-1.23,7.61,7.61,0,0,0,.29-1.52q.06-.74.06-1.84v-8.3a16.2,16.2,0,0,0-.09-1.82,6.05,6.05,0,0,0-.34-1.41,2.67,2.67,0,0,0-.68-1.06,3,3,0,0,0-1.14-.62,5.64,5.64,0,0,0-1.68-.22h-2.73Z"/><path class="b" d="M157,96.27V74.05h8v1.61h-5.92V84h4.85v1.55h-4.85v9.17h6v1.57Z"/><path class="b" d="M171,96.27l-5.2-22.22h2L172,92.44l4-18.39h2l-5,22.22Z"/><path class="b" d="M179.59,96.27V74.05h8v1.61H181.7V84h4.85v1.55H181.7v9.17h6v1.57Z"/><path class="b" d="M189.65,96.27V74.05h2.1V94.71h6.33v1.57Z"/><path class="b" d="M204.54,96.56a6.9,6.9,0,0,1-2.74-.49A4,4,0,0,1,200,94.63a6.43,6.43,0,0,1-.92-2.14,12.26,12.26,0,0,1-.28-2.78V80.49a11.63,11.63,0,0,1,.29-2.75,5.94,5.94,0,0,1,.94-2.08,4,4,0,0,1,1.78-1.37,8,8,0,0,1,5.41,0A4,4,0,0,1,209,75.66a6,6,0,0,1,.94,2.09,11.6,11.6,0,0,1,.29,2.73v9.25a13.81,13.81,0,0,1-.17,2.25,7.2,7.2,0,0,1-.58,1.88,4.24,4.24,0,0,1-2.69,2.37A7.25,7.25,0,0,1,204.54,96.56Zm-1.8-2a5.07,5.07,0,0,0,3.59,0,2.38,2.38,0,0,0,1.11-1,4.61,4.61,0,0,0,.54-1.46,10.44,10.44,0,0,0,.15-1.93V80.11a10.34,10.34,0,0,0-.15-1.92,4.46,4.46,0,0,0-.54-1.44,2.33,2.33,0,0,0-1.11-1,5.28,5.28,0,0,0-3.59,0,2.33,2.33,0,0,0-1.11,1,4.44,4.44,0,0,0-.54,1.44,10.29,10.29,0,0,0-.15,1.92V90.16a10.39,10.39,0,0,0,.15,1.93,4.59,4.59,0,0,0,.54,1.46A2.38,2.38,0,0,0,202.74,94.54Z"/><path class="b" d="M212.79,96.27V74.05h5.33a6.79,6.79,0,0,1,2.51.42,3.75,3.75,0,0,1,1.65,1.21,5.14,5.14,0,0,1,.87,1.84,9.78,9.78,0,0,1,.27,2.41,8.35,8.35,0,0,1-.29,2.26,5.51,5.51,0,0,1-.9,1.84,4,4,0,0,1-1.65,1.27,6,6,0,0,1-2.43.46h-3.26V96.27Zm2.1-12.08h2.67a3.85,3.85,0,0,0,2.93-.94,4.85,4.85,0,0,0,.88-3.3,5.48,5.48,0,0,0-.78-3.45,3.92,3.92,0,0,0-3-.89h-2.69Z"/><path class="b" d="M225.18,96.27V74.05h8v1.61h-5.92V84h4.85v1.55h-4.85v9.17h6v1.57Z"/><path class="b" d="M235.24,96.27V74.05h5.05q3,0,4.24,1.43a6.11,6.11,0,0,1,1.27,4.19q0,4.6-3.1,5.24l3.44,11.37h-2.06l-3.26-10.92h-3.48V96.27Zm2.1-12.47h2.83a3.41,3.41,0,0,0,2.8-1,5,5,0,0,0,.79-3.16,5,5,0,0,0-.75-3.1,3.37,3.37,0,0,0-2.77-1h-2.9Z"/><path class="b" d="M248.26,99.48l-.42-.88a2.56,2.56,0,0,0,1-.94,2.79,2.79,0,0,0,.3-1.38h-1.21v-3h2.25v2.77a4.25,4.25,0,0,1-.44,2.11A3.46,3.46,0,0,1,248.26,99.48Z"/><path class="b" d="M257.22,96.27V74.05h4.87a8.43,8.43,0,0,1,2.39.31,5,5,0,0,1,1.72.86,4.24,4.24,0,0,1,1.11,1.38,6.52,6.52,0,0,1,.61,1.8,11.94,11.94,0,0,1,.18,2.18v8.83a12.21,12.21,0,0,1-.29,2.84,6,6,0,0,1-1,2.14A4.15,4.15,0,0,1,265,95.8a7.24,7.24,0,0,1-2.78.48Zm2.1-1.57h2.8a4.7,4.7,0,0,0,1.75-.29,3,3,0,0,0,1.13-.74,3.09,3.09,0,0,0,.64-1.23,7.61,7.61,0,0,0,.29-1.52q.06-.74.06-1.84v-8.3A16.2,16.2,0,0,0,265.9,79a6,6,0,0,0-.33-1.41,2.67,2.67,0,0,0-.68-1.06,3,3,0,0,0-1.14-.62,5.64,5.64,0,0,0-1.68-.22h-2.73Z"/><path class="b" d="M270.65,96.27V74.05h8v1.61h-5.92V84h4.85v1.55h-4.85v9.17h6v1.57Z"/><path class="b" d="M285.46,96.54a5,5,0,0,1-4-1.59,7.52,7.52,0,0,1-1.57-4.44l1.86-.54q.09.88.23,1.56a7.12,7.12,0,0,0,.42,1.33,3.49,3.49,0,0,0,.67,1.07,2.9,2.9,0,0,0,1,.67,3.6,3.6,0,0,0,1.4.25q3.14,0,3.14-3.22a4.77,4.77,0,0,0-.18-1.33,4.48,4.48,0,0,0-.58-1.22A9.28,9.28,0,0,0,287,88q-.44-.48-1.13-1.17L282,83.06a6,6,0,0,1-2-4.48,4.55,4.55,0,0,1,1.35-3.51,5.21,5.21,0,0,1,3.65-1.26H285a5,5,0,0,1,3.71,1.31,6.75,6.75,0,0,1,1.53,4.33l-1.77.46a7,7,0,0,0-1-3.38,2.74,2.74,0,0,0-2.41-1.07H285a3.56,3.56,0,0,0-2.3.76,2.73,2.73,0,0,0-.84,2.18,3.79,3.79,0,0,0,.36,1.66,5.7,5.7,0,0,0,1.21,1.57l3.91,3.71a13.78,13.78,0,0,1,2.39,2.93,6.22,6.22,0,0,1,.87,3.21,4.88,4.88,0,0,1-1.4,3.74A5.2,5.2,0,0,1,285.46,96.54Z"/><path class="b" d="M292.55,96.27V74.05h2.06V96.27Z"/><path class="b" d="M302.7,96.57a6.3,6.3,0,0,1-2.63-.5,3.9,3.9,0,0,1-1.7-1.45,6.59,6.59,0,0,1-.88-2.2,13.93,13.93,0,0,1-.27-2.91V80.82a14.16,14.16,0,0,1,.26-2.92,6.42,6.42,0,0,1,.88-2.18,3.8,3.8,0,0,1,1.74-1.43,6.92,6.92,0,0,1,2.74-.48,4.92,4.92,0,0,1,4.13,1.6,7.72,7.72,0,0,1,1.25,4.79V81h-2V80.2a7,7,0,0,0-.71-3.61,2.92,2.92,0,0,0-2.67-1.12,4.09,4.09,0,0,0-1.54.26,2.75,2.75,0,0,0-1,.68,3,3,0,0,0-.6,1.11,6.91,6.91,0,0,0-.29,1.4,16.62,16.62,0,0,0-.07,1.69v9.13a13,13,0,0,0,.15,2.18,4.87,4.87,0,0,0,.54,1.58,2.41,2.41,0,0,0,1.11,1,4.18,4.18,0,0,0,1.78.34,2.89,2.89,0,0,0,2.71-1.27,7.84,7.84,0,0,0,.76-3.9V87.07H303.1V85.53h5.2V96.27H307l-.25-2.52A3.83,3.83,0,0,1,302.7,96.57Z"/><path class="b" d="M311,96.27V74.05h1.54l7.08,17.25V74.05h1.8V96.27H320l-7.13-17.45V96.27Z"/><path class="b" d="M324.44,96.27V74.05h8v1.61h-5.92V84h4.85v1.55h-4.85v9.17h6v1.57Z"/><path class="b" d="M334.5,96.27V74.05h5.05q3,0,4.24,1.43a6.11,6.11,0,0,1,1.27,4.19q0,4.6-3.1,5.24l3.44,11.37h-2.06l-3.26-10.92H336.6V96.27Zm2.1-12.47h2.83a3.41,3.41,0,0,0,2.8-1,5,5,0,0,0,.79-3.16,5,5,0,0,0-.75-3.1,3.37,3.37,0,0,0-2.77-1h-2.9Z"/><rect class="b" x="348.39" y="74.05" width="10.94" height="22.22" rx="0.73" ry="0.73"/></svg>